<svg width="24" height="24" viewBox="0 0 24 24" fill="none" xmlns="http://www.w3.org/2000/svg">
<path d="M20 3H4C3.44772 3 3 3.44772 3 4V6C3 6.55228 3.44772 7 4 7H20C20.5523 7 21 6.55228 21 6V4C21 3.44772 20.5523 3 20 3Z" stroke="#4F7D96" stroke-width="1.5" stroke-linecap="round" stroke-linejoin="round"/>
<path d="M12 18C14.2091 18 16 16.2091 16 14C16 11.7909 14.2091 10 12 10C9.79086 10 8 11.7909 8 14C8 16.2091 9.79086 18 12 18Z" stroke="#4F7D96" stroke-width="1.5" stroke-linecap="round" stroke-linejoin="round"/>
<path d="M19 7V14C19 15.8565 18.2625 17.637 16.9497 18.9497C15.637 20.2625 13.8565 21 12 21C10.1435 21 8.36301 20.2625 7.05025 18.9497C5.7375 17.637 5 15.8565 5 14V7" stroke="#4F7D96" stroke-width="1.5" stroke-linecap="round" stroke-linejoin="round"/>
<path d="M12 14H12.01" stroke="#4F7D96" stroke-width="2" stroke-linecap="round" stroke-linejoin="round"/>
</svg>
