<svg width="25" height="24" viewBox="0 0 25 24" fill="none" xmlns="http://www.w3.org/2000/svg">
<path fill-rule="evenodd" clip-rule="evenodd" d="M8.37866 17C8.37866 14.9289 10.0621 13.25 12.1387 13.25C14.2153 13.25 15.8987 14.9289 15.8987 17V22C15.8987 22.4142 15.562 22.75 15.1467 22.75H9.13066C8.71534 22.75 8.37866 22.4142 8.37866 22V17ZM12.1387 14.75C10.8927 14.75 9.88266 15.7574 9.88266 17V21.25H14.3947V17C14.3947 15.7574 13.3846 14.75 12.1387 14.75Z" fill="#3C5342"/>
<path fill-rule="evenodd" clip-rule="evenodd" d="M12.8709 3.67238C12.3963 3.51 11.8811 3.51 11.4065 3.67238C11.0796 3.78426 10.755 4.02348 9.83029 4.74082L5.31828 8.24082C4.72257 8.70292 4.52155 8.86459 4.37179 9.04843C4.15515 9.31436 4.00226 9.62612 3.9248 9.95993C3.87125 10.1907 3.8667 10.4482 3.8667 11.2009V17.5C3.8667 18.2092 3.86711 18.7035 3.89358 19.0904C3.91959 19.4706 3.96822 19.692 4.03843 19.8611C4.2674 20.4124 4.70658 20.8504 5.25937 21.0787C5.42886 21.1488 5.65085 21.1973 6.03205 21.2232C6.42 21.2496 6.91564 21.25 7.6267 21.25H16.6507C17.3618 21.25 17.8574 21.2496 18.2454 21.2232C18.6266 21.1973 18.8485 21.1488 19.018 21.0787C19.5708 20.8504 20.01 20.4124 20.239 19.8611C20.3092 19.692 20.3578 19.4706 20.3838 19.0904C20.4103 18.7035 20.4107 18.2092 20.4107 17.5V11.2009C20.4107 10.4482 20.4062 10.1907 20.3526 9.95993C20.2751 9.62612 20.1223 9.31436 19.9056 9.04843C19.7558 8.86459 19.5548 8.70292 18.9591 8.24082L14.4471 4.74082C13.5224 4.02348 13.1978 3.78426 12.8709 3.67238ZM10.9184 2.25357C11.7093 1.98294 12.5681 1.98294 13.359 2.25357C13.9542 2.45727 14.488 2.87169 15.2639 3.47407C15.2989 3.50126 15.3344 3.52884 15.3705 3.55679L19.8825 7.05679C19.905 7.07426 19.9272 7.09148 19.9491 7.10847C20.453 7.49907 20.8012 7.76905 21.0729 8.10255C21.434 8.54576 21.6888 9.06535 21.8179 9.62171C21.915 10.0403 21.9149 10.4802 21.9147 11.1167C21.9147 11.1444 21.9147 11.1724 21.9147 11.2009V17.5267C21.9147 18.203 21.9147 18.7485 21.8843 19.1925C21.8531 19.6491 21.7873 20.0528 21.6285 20.4351C21.2469 21.3539 20.5149 22.084 19.5936 22.4646C19.2103 22.6229 18.8055 22.6886 18.3477 22.7197C17.9025 22.75 17.3555 22.75 16.6774 22.75H7.59999C6.92187 22.75 6.37486 22.75 5.92967 22.7197C5.47189 22.6886 5.06711 22.6229 4.68381 22.4646C3.76251 22.084 3.03053 21.3539 2.64891 20.4351C2.49015 20.0528 2.4243 19.6491 2.39307 19.1925C2.36269 18.7485 2.3627 18.203 2.3627 17.5266L2.3627 11.2009C2.3627 11.1724 2.36269 11.1444 2.36269 11.1167C2.36251 10.4802 2.36238 10.0403 2.45953 9.62171C2.58864 9.06535 2.84344 8.54576 3.20451 8.10255C3.4762 7.76905 3.82443 7.49908 4.32827 7.10847C4.35019 7.09148 4.3724 7.07426 4.39492 7.05679L8.90692 3.55679C8.94296 3.52883 8.97848 3.50126 9.0135 3.47407C9.78939 2.87169 10.3232 2.45727 10.9184 2.25357Z" fill="#3C5342"/>
</svg>
