<svg width="24" height="24" viewBox="0 0 24 24" fill="none" xmlns="http://www.w3.org/2000/svg">
<path d="M12 12C11.8408 12 11.6882 12.0632 11.5757 12.1757C11.4632 12.2883 11.4 12.4409 11.4 12.6V16.2C11.4 16.3591 11.4632 16.5117 11.5757 16.6243C11.6882 16.7368 11.8408 16.8 12 16.8C12.1591 16.8 12.3117 16.7368 12.4242 16.6243C12.5367 16.5117 12.6 16.3591 12.6 16.2V12.6C12.6 12.4409 12.5367 12.2883 12.4242 12.1757C12.3117 12.0632 12.1591 12 12 12Z" fill="#BABDC1"/>
<path d="M7.19995 10.2C7.19995 10.0408 7.26317 9.88823 7.37569 9.77571C7.48821 9.66319 7.64082 9.59998 7.79995 9.59998C7.95908 9.59998 8.11169 9.66319 8.22421 9.77571C8.33674 9.88823 8.39995 10.0408 8.39995 10.2V16.2C8.39995 16.3591 8.33674 16.5117 8.22421 16.6242C8.11169 16.7368 7.95908 16.8 7.79995 16.8C7.64082 16.8 7.48821 16.7368 7.37569 16.6242C7.26317 16.5117 7.19995 16.3591 7.19995 16.2V10.2Z" fill="#BABDC1"/>
<path d="M16.2 7.20001C16.0408 7.20001 15.8882 7.26323 15.7757 7.37575C15.6632 7.48827 15.6 7.64088 15.6 7.80001V16.2C15.6 16.3591 15.6632 16.5118 15.7757 16.6243C15.8882 16.7368 16.0408 16.8 16.2 16.8C16.3591 16.8 16.5117 16.7368 16.6242 16.6243C16.7368 16.5118 16.8 16.3591 16.8 16.2V7.80001C16.8 7.64088 16.7368 7.48827 16.6242 7.37575C16.5117 7.26323 16.3591 7.20001 16.2 7.20001Z" fill="#BABDC1"/>
<path d="M3.59998 6.00001C3.59998 5.36349 3.85283 4.75304 4.30292 4.30295C4.75301 3.85286 5.36346 3.60001 5.99998 3.60001H18C18.6365 3.60001 19.2469 3.85286 19.697 4.30295C20.1471 4.75304 20.4 5.36349 20.4 6.00001V18C20.4 18.6365 20.1471 19.247 19.697 19.6971C19.2469 20.1472 18.6365 20.4 18 20.4H5.99998C5.36346 20.4 4.75301 20.1472 4.30292 19.6971C3.85283 19.247 3.59998 18.6365 3.59998 18V6.00001ZM4.79998 6.00001V18C4.79998 18.3183 4.9264 18.6235 5.15145 18.8485C5.37649 19.0736 5.68172 19.2 5.99998 19.2H18C18.3182 19.2 18.6235 19.0736 18.8485 18.8485C19.0735 18.6235 19.2 18.3183 19.2 18V6.00001C19.2 5.68175 19.0735 5.37652 18.8485 5.15148C18.6235 4.92643 18.3182 4.80001 18 4.80001H5.99998C5.68172 4.80001 5.37649 4.92643 5.15145 5.15148C4.9264 5.37652 4.79998 5.68175 4.79998 6.00001Z" fill="#BABDC1"/>
</svg>
