<svg width="32" height="32" viewBox="0 0 32 32" fill="none" xmlns="http://www.w3.org/2000/svg">
<path d="M13.3333 29.3333H18.6666H13.3333ZM6.66663 12C6.66663 9.52464 7.64996 7.15067 9.4003 5.40033C11.1506 3.64999 13.5246 2.66666 16 2.66666C18.4753 2.66666 20.8493 3.64999 22.5996 5.40033C24.35 7.15067 25.3333 9.52464 25.3333 12C25.3342 13.5028 24.9707 14.9833 24.2741 16.3149C23.5774 17.6464 22.5683 18.7892 21.3333 19.6453L20.6106 23.0667C20.515 23.6973 20.1964 24.2727 19.7128 24.6886C19.2291 25.1045 18.6125 25.3332 17.9746 25.3333H14.0253C13.3875 25.3332 12.7708 25.1045 12.2871 24.6886C11.8035 24.2727 11.485 23.6973 11.3893 23.0667L10.6666 19.66C9.43117 18.8008 8.42206 17.6554 7.7255 16.3214C7.02894 14.9875 6.66563 13.5048 6.66663 12V12Z" stroke="#1D305E" stroke-width="2" stroke-linecap="round" stroke-linejoin="round"/>
<path d="M10.6666 20H21.3333" stroke="#1D305E" stroke-width="2" stroke-linecap="round" stroke-linejoin="round"/>
</svg>
