<svg width="25" height="24" viewBox="0 0 25 24" fill="none" xmlns="http://www.w3.org/2000/svg">
<path fill-rule="evenodd" clip-rule="evenodd" d="M10.3457 19.6776C10.168 19.3051 9.72158 19.1455 9.34682 19.3212C8.97096 19.4975 8.80949 19.9442 8.98617 20.3191L9.66673 20C8.98617 20.3191 8.98631 20.3193 8.98644 20.3196L8.98674 20.3203L8.98741 20.3217L8.98901 20.325L8.99332 20.3339L9.0064 20.3602C9.01709 20.3814 9.0318 20.4097 9.05059 20.4441C9.08809 20.513 9.14218 20.6069 9.2134 20.7176C9.355 20.9376 9.56884 21.231 9.86048 21.5263C10.443 22.1161 11.3763 22.75 12.6747 22.75C13.9732 22.75 14.9065 22.1161 15.489 21.5263C15.7806 21.231 15.9945 20.9376 16.1361 20.7176C16.2073 20.6069 16.2614 20.513 16.2989 20.4441C16.3177 20.4097 16.3324 20.3814 16.3431 20.3602L16.3561 20.3339L16.3604 20.325L16.3621 20.3217L16.3627 20.3203L16.363 20.3196C16.3632 20.3193 16.3633 20.3191 15.6827 20L16.3633 20.3191C16.54 19.9442 16.3785 19.4975 16.0026 19.3212C15.6279 19.1456 15.1815 19.3051 15.0037 19.6776M15.0024 19.6804L15.0027 19.6799L15.0031 19.679L15.0036 19.6779L15.0002 19.6847C14.9961 19.6928 14.9885 19.7075 14.9775 19.7277C14.9554 19.7683 14.9197 19.8306 14.8703 19.9074C14.7706 20.0624 14.6197 20.269 14.4175 20.4737C14.0123 20.8839 13.4416 21.25 12.6747 21.25C11.9079 21.25 11.3371 20.8839 10.932 20.4737C10.7298 20.269 10.5789 20.0624 10.4792 19.9074C10.4297 19.8306 10.3941 19.7683 10.3719 19.7277C10.3609 19.7075 10.3534 19.6928 10.3492 19.6847L10.3457 19.6776" fill="#BABDC1"/>
<path fill-rule="evenodd" clip-rule="evenodd" d="M13.4267 2C13.4267 1.58579 13.09 1.25 12.6747 1.25C12.2594 1.25 11.9227 1.58579 11.9227 2V3.28638C11.1601 3.36032 10.4113 3.54647 9.70097 3.83993C8.75819 4.22941 7.90156 4.80027 7.17999 5.51992C6.45842 6.23958 5.88603 7.09393 5.49552 8.0342C5.10501 8.97448 4.90401 9.98226 4.90401 11V16.25H3.65068C3.23536 16.25 2.89868 16.5858 2.89868 17C2.89868 17.4142 3.23536 17.75 3.65068 17.75H5.65601H19.6933H21.6987C22.114 17.75 22.4507 17.4142 22.4507 17C22.4507 16.5858 22.114 16.25 21.6987 16.25H20.4453V11C20.4453 9.98226 20.2444 8.97448 19.8538 8.0342C19.4633 7.09393 18.8909 6.23958 18.1694 5.51992C17.4478 4.80027 16.5912 4.22941 15.6484 3.83993C14.938 3.54647 14.1892 3.36032 13.4267 3.28638V2ZM18.9413 11C18.9413 10.1792 18.7793 9.36651 18.4643 8.60823C18.1494 7.84994 17.6878 7.16095 17.1059 6.58058C16.524 6.00022 15.8331 5.53984 15.0728 5.22575C14.3125 4.91166 13.4976 4.75 12.6747 4.75C11.8517 4.75 11.0368 4.91166 10.2765 5.22575C9.51622 5.53984 8.82539 6.00022 8.24348 6.58058C7.66156 7.16095 7.19997 7.84994 6.88504 8.60823C6.57011 9.36651 6.40801 10.1792 6.40801 11V16.25H18.9413V11Z" fill="#BABDC1"/>
</svg>
