<svg width="27" height="23" viewBox="0 0 27 23" fill="none" xmlns="http://www.w3.org/2000/svg">
<path d="M3.66667 0C2.69421 0 1.76158 0.386308 1.07394 1.07394C0.386309 1.76157 0 2.69421 0 3.66667V15C0 15.9725 0.386309 16.9051 1.07394 17.5927C1.76158 18.2804 2.69421 18.6667 3.66667 18.6667H23C23.9725 18.6667 24.9051 18.2804 25.5927 17.5927C26.2804 16.9051 26.6667 15.9725 26.6667 15V3.66667C26.6667 2.69421 26.2804 1.76157 25.5927 1.07394C24.9051 0.386308 23.9725 0 23 0H3.66667ZM2 3.66667C2 2.74667 2.74667 2 3.66667 2H23C23.92 2 24.6667 2.74667 24.6667 3.66667V15C24.6667 15.92 23.92 16.6667 23 16.6667H3.66667C2.74667 16.6667 2 15.92 2 15V3.66667Z" fill="#364C83"/>
<path d="M7.08301 20.6665C6.8841 20.6665 6.69333 20.7719 6.55268 20.9594C6.41203 21.1469 6.33301 21.4013 6.33301 21.6665C6.33301 21.9317 6.41203 22.1861 6.55268 22.3736C6.69333 22.5611 6.8841 22.6665 7.08301 22.6665H19.583C19.7819 22.6665 19.9727 22.5611 20.1133 22.3736C20.254 22.1861 20.333 21.9317 20.333 21.6665C20.333 21.4013 20.254 21.1469 20.1133 20.9594C19.9727 20.7719 19.7819 20.6665 19.583 20.6665H7.08301Z" fill="#364C83"/>
</svg>
