<svg width="25" height="24" viewBox="0 0 25 24" fill="none" xmlns="http://www.w3.org/2000/svg">
<path fill-rule="evenodd" clip-rule="evenodd" d="M12.8641 2.75C10.5106 2.75 8.60275 4.65279 8.60275 7C8.60275 9.34721 10.5106 11.25 12.8641 11.25C15.2176 11.25 17.1254 9.34721 17.1254 7C17.1254 4.65279 15.2176 2.75 12.8641 2.75ZM7.09875 7C7.09875 3.82436 9.67998 1.25 12.8641 1.25C16.0482 1.25 18.6294 3.82436 18.6294 7C18.6294 10.1756 16.0482 12.75 12.8641 12.75C9.67998 12.75 7.09875 10.1756 7.09875 7Z" fill="#BABDC1"/>
<path fill-rule="evenodd" clip-rule="evenodd" d="M9.12399 14.25C9.13649 14.25 9.14917 14.25 9.16203 14.25L16.604 14.25C16.8853 14.25 17.0787 14.2499 17.2613 14.2677C18.4977 14.3879 19.5947 15.1094 20.1925 16.1954C20.2808 16.3558 20.357 16.5331 20.4677 16.7909L20.4827 16.8258C20.4945 16.8533 20.5062 16.8804 20.5176 16.907C20.7491 17.4455 20.9041 17.8059 20.9782 18.1077C21.499 20.2277 20.1014 22.3416 17.9425 22.6993C17.6352 22.7502 17.2419 22.7501 16.6544 22.75C16.6254 22.75 16.5959 22.75 16.566 22.75H9.16203C9.13207 22.75 9.1026 22.75 9.0736 22.75C8.48606 22.7501 8.0928 22.7502 7.78548 22.6993C5.62657 22.3416 4.22898 20.2277 4.74973 18.1077C4.82386 17.8059 4.97885 17.4455 5.2104 16.9069C5.22183 16.8803 5.23344 16.8533 5.24525 16.8258C5.25031 16.8141 5.2553 16.8024 5.26023 16.791C5.37101 16.5331 5.44718 16.3558 5.53545 16.1954C6.13325 15.1094 7.23032 14.3879 8.46671 14.2677C8.64928 14.2499 8.84267 14.25 9.12399 14.25ZM9.16203 15.75C8.82842 15.75 8.71303 15.7509 8.61261 15.7606C7.87077 15.8327 7.21253 16.2656 6.85385 16.9173C6.80529 17.0055 6.75906 17.1109 6.62764 17.4167C6.34887 18.0655 6.25086 18.3005 6.21054 18.4646C5.89809 19.7366 6.73664 21.0049 8.03199 21.2196C8.19915 21.2473 8.45434 21.25 9.16203 21.25H16.566C17.2736 21.25 17.5288 21.2473 17.696 21.2196C18.9913 21.0049 19.8299 19.7366 19.5174 18.4646C19.4771 18.3005 19.3791 18.0655 19.1003 17.4167C18.9689 17.1109 18.9227 17.0055 18.8741 16.9173C18.5154 16.2656 17.8572 15.8327 17.1154 15.7606C17.0149 15.7509 16.8996 15.75 16.5659 15.75H9.16203Z" fill="#BABDC1"/>
</svg>
