<svg width="20" height="24" viewBox="0 0 20 24" fill="none" xmlns="http://www.w3.org/2000/svg">
<path d="M10 0C4.488 0 0 4.488 0 10C0 15.512 4.488 20 10 20C15.512 20 20 15.512 20 10C20 4.488 15.512 0 10 0ZM10 2C12.0241 1.9974 13.9735 2.76436 15.4532 4.14546C16.9329 5.52657 17.8322 7.41853 17.969 9.438C17.3723 9.01932 16.6885 8.74136 15.969 8.625C15.5352 8.5529 15.0956 8.52143 14.656 8.531C14.011 8.54004 13.3701 8.63453 12.75 8.812C12.4736 8.1774 11.9873 7.65716 11.3728 7.33853C10.7583 7.0199 10.0529 6.92227 9.375 7.062C9.367 7.055 9.352 7.07 9.344 7.062C8.695 6.52 8.004 5.68 7.688 4.844C7.477 4.285 7.43 3.77 7.531 3.344C7.629 2.926 7.844 2.531 8.406 2.156C8.931 2.05229 9.46486 2.00004 10 2ZM5.5 3.406C5.44142 4.12892 5.54847 4.85567 5.813 5.531C6.20134 6.54705 6.80912 7.46488 7.593 8.219C7.17315 8.78379 6.96506 9.47813 7.00509 10.1807C7.04512 10.8833 7.33072 11.5496 7.812 12.063C7.652 12.859 7.273 13.828 6.719 14.5C6.336 14.965 5.895 15.277 5.469 15.406C5.043 15.536 4.602 15.543 3.969 15.219C2.754 13.816 2 12.008 2 10C2 7.246 3.395 4.844 5.5 3.406ZM10 9C10.563 9 11 9.438 11 10C11 10.563 10.562 11 10 11C9.437 11 9 10.562 9 10C9 9.437 9.438 9 10 9ZM14.688 10.563C15.008 10.551 15.332 10.574 15.625 10.625C16.211 10.727 16.703 10.941 17.031 11.25C17.34 11.543 17.543 11.918 17.594 12.563C17.0563 14.1499 16.0343 15.5282 14.672 16.5036C13.3096 17.479 11.6755 18.0024 10 18C8.73 18 7.531 17.71 6.469 17.187C7.184 16.875 7.777 16.355 8.25 15.781C8.92278 14.9559 9.4129 13.9975 9.688 12.969C9.793 12.98 9.891 13 10 13C11.313 13 12.41 12.121 12.813 10.937C13.332 10.738 14.012 10.586 14.688 10.563ZM9 21V22H3V24H17V22H11V21H9Z" fill="#364C83"/>
</svg>
